# xmcd
#
# Track frame offsets:
#	183
#	15108
#	27308
#	38615
#	51865
#	62195
#	74645
#	85145
#	96605
#	107598
#	118203
#	130940
#	141518
#	153033
#	163558
#	176495
#	187083
#	199133
#	209483
#
# Disc length: 2943
#
# Revision: 1
# Processed by: cddbd v1.5.1PL0 Copyright (c) Steve Scherf et al.
# Submitted via: CDex 1.50
# Normalized: r0:TDELIM( - )
#
DISCID=130b7d13
DTITLE=Various Artist - Country and Western Hits 1950-1959
DYEAR=1985
DGENRE=Country
TTITLE0=Kingston Trio - Tom Dooley
TTITLE1=Porter Wagoner - Satisfied Mind
TTITLE2=Faron Young - Country Girl
TTITLE3=Ferlin Husky - Country Music's Here To Stay
TTITLE4=Ferlin Husky - Gone
TTITLE5=Bobby Helms - Fraulein
TTITLE6=Wanda Jackson - It's Only Make Believe
TTITLE7=Carl Smith - Lose Talk
TTITLE8=Carl Smith - Hey, Joe
TTITLE9=Carl Smith - Don't Just Stand There
TTITLE10=Carl Smith - Let Old Mother Nature Have Her Way
TTITLE11=Stonewall Jackson - Slowly
TTITLE12=Bobby Helms - Jaqueline
TTITLE13=Hank Locklin - Let Me Be There
TTITLE14=Pee Wee King - Slow Poke
TTITLE15=Hank Thompson - Wake Up Irene
TTITLE16=Hank Thompson - The Wild Side Of Love
TTITLE17=Johnny Russel - Jambalaya
TTITLE18=Kitty Wells - It Wasn't God Who Made Honky Tonk Angels
EXTD=YEAR: 1985
EXTT0=
EXTT1=
EXTT2=
EXTT3=
EXTT4=
EXTT5=
EXTT6=
EXTT7=
EXTT8=
EXTT9=
EXTT10=
EXTT11=
EXTT12=
EXTT13=
EXTT14=
EXTT15=
EXTT16=
EXTT17=
EXTT18=
PLAYORDER=
